<svg version="1.1" viewBox="0.0 0.0 400.0 400.0" fill="none" stroke="none" stroke-linecap="square" stroke-miterlimit="10" xmlns:xlink="http://www.w3.org/1999/xlink" xmlns="http://www.w3.org/2000/svg"><clipPath id="p.0"><path d="m0 0l400.0 0l0 400.0l-400.0 0l0 -400.0z" clip-rule="nonzero"/></clipPath><g clip-path="url(#p.0)"><path fill="#000000" fill-opacity="0.0" d="m0 0l400.0 0l0 400.0l-400.0 0z" fill-rule="evenodd"/><path fill="#003e74" d="m0.7585302 0.591716l400.0 0l0 399.40158l-400.0 0z" fill-rule="evenodd"/><path stroke="#003e74" stroke-width="12.0" stroke-linejoin="round" stroke-linecap="butt" d="m0.7585302 0.591716l400.0 0l0 399.40158l-400.0 0z" fill-rule="evenodd"/><path fill="#000000" fill-opacity="0.0" d="m25.763779 28.63517l350.80316 0l0 72.72441l-350.80316 0z" fill-rule="evenodd"/><path fill="#000000" fill-opacity="0.0" d="m91.40945 78.91076l339.49606 0l0 103.43307l-339.49606 0z" fill-rule="evenodd"/><path fill="#0b5394" d="m189.65535 59.77484l5.1875 0l0 284.9194l-5.1875 0z" fill-rule="evenodd"/><path stroke="#0b5394" stroke-width="2.0" stroke-linejoin="round" stroke-linecap="butt" d="m189.65535 59.77484l5.1875 0l0 284.9194l-5.1875 0z" fill-rule="evenodd"/><path fill="#0b5394" d="m272.44247 344.6924l0 6.177002l-161.37622 0l0 -6.177002z" fill-rule="evenodd"/><path stroke="#0b5394" stroke-width="2.0" stroke-linejoin="round" stroke-linecap="butt" d="m272.44247 344.6924l0 6.177002l-161.37622 0l0 -6.177002z" fill-rule="evenodd"/><path fill="#006eaf" d="m327.7388 102.02419l0 3.3067627l-270.97574 0l0 -3.3067627z" fill-rule="evenodd"/><path stroke="#0b5394" stroke-width="2.0" stroke-linejoin="round" stroke-linecap="butt" d="m327.7388 102.02419l0 3.3067627l-270.97574 0l0 -3.3067627z" fill-rule="evenodd"/><path fill="#0b5394" d="m129.29915 250.54373c-37.980583 22.603485 -91.07428 22.525482 -128.94217 -0.18939209z" fill-rule="evenodd"/><path stroke="#0b5394" stroke-width="2.0" stroke-linejoin="round" stroke-linecap="butt" d="m129.29915 250.54373c-37.980583 22.603485 -91.07428 22.525482 -128.94217 -0.18939209z" fill-rule="evenodd"/><path fill="#000000" fill-opacity="0.0" d="m56.763058 103.677574l72.53543 146.86615" fill-rule="evenodd"/><path stroke="#0b5394" stroke-width="2.0" stroke-linejoin="round" stroke-linecap="butt" d="m56.763058 103.677574l72.53543 146.86615" fill-rule="evenodd"/><path fill="#000000" fill-opacity="0.0" d="m56.763058 103.677574l-56.40945 146.67715" fill-rule="evenodd"/><path stroke="#0b5394" stroke-width="2.0" stroke-linejoin="round" stroke-linecap="butt" d="m56.763058 103.677574l-56.40945 146.67715" fill-rule="evenodd"/><path fill="#0b5394" d="m397.99683 259.1728l0 0c-40.28543 10.650269 -88.12332 10.572357 -128.27673 -0.20889282z" fill-rule="evenodd"/><path stroke="#0b5394" stroke-width="2.0" stroke-linejoin="round" stroke-linecap="butt" d="m397.99683 259.1728l0 0c-40.28543 10.650269 -88.12332 10.572357 -128.27673 -0.20889282z" fill-rule="evenodd"/><path fill="#000000" fill-opacity="0.0" d="m327.09918 106.16492l70.897644 153.00787" fill-rule="evenodd"/><path stroke="#0b5394" stroke-width="2.0" stroke-linejoin="round" stroke-linecap="butt" d="m327.09918 106.16492l70.897644 153.00787" fill-rule="evenodd"/><path fill="#000000" fill-opacity="0.0" d="m326.57047 103.37336l-56.850372 155.59055" fill-rule="evenodd"/><path stroke="#0b5394" stroke-width="2.0" stroke-linejoin="round" stroke-linecap="butt" d="m326.57047 103.37336l-56.850372 155.59055" fill-rule="evenodd"/><path fill="#0b5394" d="m398.56293 259.25107c-37.98059 22.603485 -91.07428 22.525513 -128.94217 -0.18936157z" fill-rule="evenodd"/><path stroke="#0b5394" stroke-width="2.0" stroke-linejoin="round" stroke-linecap="butt" d="m398.56293 259.25107c-37.98059 22.603485 -91.07428 22.525513 -128.94217 -0.18936157z" fill-rule="evenodd"/><path fill="#000000" fill-opacity="0.0" d="m555.0735 28.63517l492.0 0l0 261.7953l-492.0 0z" fill-rule="evenodd"/><path fill="#000000" fill-opacity="0.0" d="m0 28.63642l492.0 0l0 250.48819l-492.0 0z" fill-rule="evenodd"/><path fill="#f3f3f3" d="m65.078125 244.6764l-47.671875 0l0 -65.90625l47.671875 0l0 12.75l-30.765625 0l0 11.375l28.5625 0l0 12.75l-28.5625 0l0 16.28125l30.765625 0l0 12.75zm65.83403 -53.15625l-20.59375 0l0 53.15625l-16.984375 0l0 -53.15625l-20.59375 0l0 -12.75l58.171875 0l0 12.75zm69.31061 53.15625l-17.0 0l0 -29.03125l-25.09375 0l0 29.03125l-17.0 0l0 -65.90625l17.0 0l0 24.125l25.09375 0l0 -24.125l17.0 0l0 65.90625zm52.46263 0l-38.609375 0l0 -11.6875l10.8125 0l0 -42.53125l-10.8125 0l0 -11.6875l38.609375 0l0 11.6875l-10.796875 0l0 42.53125l10.796875 0l0 11.6875zm43.645355 1.28125q-7.34375 0 -13.5625 -2.15625q-6.21875 -2.171875 -10.703125 -6.46875q-4.46875 -4.296875 -6.921875 -10.71875q-2.453125 -6.421875 -2.453125 -14.828125q0 -7.828125 2.34375 -14.203125q2.34375 -6.375 6.8125 -10.9375q4.296875 -4.390625 10.640625 -6.78125q6.359375 -2.390625 13.890625 -2.390625q4.15625 0 7.5 0.46875q3.34375 0.46875 6.171875 1.21875q2.96875 0.84375 5.375 1.890625q2.421875 1.03125 4.234375 1.921875l0 15.984375l-1.953125 0q-1.234375 -1.0625 -3.125 -2.515625q-1.875 -1.46875 -4.265625 -2.890625q-2.4375 -1.421875 -5.265625 -2.390625q-2.828125 -0.96875 -6.0625 -0.96875q-3.59375 0 -6.828125 1.125q-3.21875 1.125 -5.96875 3.734375q-2.609375 2.53125 -4.234375 6.6875q-1.609375 4.15625 -1.609375 10.09375q0 6.203125 1.75 10.359375q1.75 4.15625 4.40625 6.546875q2.703125 2.4375 6.015625 3.484375q3.328125 1.03125 6.5625 1.03125q3.09375 0 6.125 -0.921875q3.03125 -0.9375 5.59375 -2.53125q2.171875 -1.28125 4.03125 -2.734375q1.859375 -1.46875 3.0625 -2.53125l1.765625 0l0 15.765625q-2.484375 1.09375 -4.75 2.078125q-2.25 0.96875 -4.71875 1.671875q-3.234375 0.9375 -6.078125 1.421875q-2.828125 0.484375 -7.78125 0.484375zm88.57059 -22.0q0 9.734375 -8.25 15.828125q-8.25 6.078125 -22.421875 6.078125q-8.1875 0 -14.28125 -1.4375q-6.078125 -1.4375 -11.390625 -3.640625l0 -15.8125l1.859375 0q5.265625 4.203125 11.796875 6.46875q6.53125 2.25 12.546875 2.25q1.546875 0 4.0625 -0.265625q2.53125 -0.265625 4.125 -0.875q1.953125 -0.796875 3.203125 -1.984375q1.265625 -1.203125 1.265625 -3.546875q0 -2.171875 -1.84375 -3.734375q-1.828125 -1.578125 -5.375 -2.421875q-3.71875 -0.890625 -7.859375 -1.65625q-4.125 -0.78125 -7.765625 -1.96875q-8.3125 -2.703125 -11.96875 -7.328125q-3.65625 -4.625 -3.65625 -11.484375q0 -9.21875 8.25 -15.03125q8.265625 -5.828125 21.234375 -5.828125q6.515625 0 12.859375 1.265625q6.359375 1.265625 11.0 3.15625l0 15.1875l-1.8125 0q-3.984375 -3.1875 -9.765625 -5.328125q-5.765625 -2.15625 -11.796875 -2.15625q-2.125 0 -4.234375 0.296875q-2.09375 0.28125 -4.046875 1.078125q-1.71875 0.671875 -2.96875 2.03125q-1.234375 1.34375 -1.234375 3.0625q0 2.609375 1.984375 4.015625q2.0 1.390625 7.53125 2.53125q3.640625 0.75 6.984375 1.46875q3.34375 0.703125 7.1875 1.9375q7.5625 2.484375 11.171875 6.765625q3.609375 4.265625 3.609375 11.078125z" fill-rule="nonzero"/><path fill="#000000" fill-opacity="0.0" d="m39.750656 -82.45145l361.00787 0l0 253.70079l-361.00787 0z" fill-rule="evenodd"/><path fill="#f3f3f3" d="m128.54753 136.14856l-17.40625 0l0 -45.4375l-12.578125 29.484375l-12.078125 0l-12.578125 -29.484375l0 45.4375l-16.5 0l0 -67.859375l20.328125 0l15.265625 34.046875l15.21875 -34.046875l20.328125 0l0 67.859375zm66.24898 0l-48.9375 0l0 -67.859375l17.5 0l0 54.734375l31.4375 0l0 13.125zm74.65686 -33.859375q0 9.484375 -4.328125 16.984375q-4.328125 7.484375 -10.937515 11.5q-4.96875 3.0 -10.90625 4.1875q-5.921875 1.1875 -14.03125 1.1875l-23.921875 0l0 -67.859375l24.609375 0q8.296875 0 14.3125 1.390625q6.015625 1.390625 10.109375 3.953125q7.0156403 4.28125 11.04689 11.546875q4.046875 7.265625 4.046875 17.109375zm-18.093765 -0.140625q0 -6.6875 -2.4375 -11.453125q-2.4375 -4.765625 -7.734375 -7.453125q-2.6875 -1.328125 -5.484375 -1.796875q-2.796875 -0.484375 -8.453125 -0.484375l-4.421875 0l0 42.46875l4.421875 0q6.25 0 9.15625 -0.5625q2.921875 -0.578125 5.703125 -2.078125q4.78125 -2.734375 7.015625 -7.3125q2.234375 -4.578125 2.234375 -11.328125zm85.766525 12.671875q0 10.03125 -8.5 16.296875q-8.5 6.265625 -23.09375 6.265625q-8.421875 0 -14.6875 -1.484375q-6.265625 -1.484375 -11.734375 -3.765625l0 -16.265625l1.90625 0q5.421875 4.328125 12.140625 6.65625q6.734375 2.328125 12.921875 2.328125q1.609375 0 4.203125 -0.265625q2.59375 -0.28125 4.234375 -0.921875q2.0 -0.828125 3.296875 -2.046875q1.3125 -1.234375 1.3125 -3.65625q0 -2.234375 -1.890625 -3.84375q-1.890625 -1.625 -5.546875 -2.484375q-3.828125 -0.90625 -8.09375 -1.703125q-4.25 -0.796875 -7.984375 -2.03125q-8.578125 -2.78125 -12.34375 -7.546875q-3.75 -4.765625 -3.75 -11.828125q0 -9.46875 8.5 -15.453125q8.5 -6.0 21.859375 -6.0q6.6875 0 13.21875 1.296875q6.546875 1.296875 11.34375 3.25l0 15.640625l-1.875 0q-4.109375 -3.28125 -10.0625 -5.484375q-5.9375 -2.21875 -12.125 -2.21875q-2.1875 0 -4.359375 0.296875q-2.15625 0.296875 -4.171875 1.109375q-1.78125 0.6875 -3.0625 2.078125q-1.265625 1.390625 -1.265625 3.171875q0 2.6875 2.046875 4.125q2.0625 1.421875 7.75 2.609375q3.734375 0.78125 7.171875 1.515625q3.453125 0.71875 7.40625 2.0q7.796875 2.546875 11.515625 6.953125q3.71875 4.390625 3.71875 11.40625z" fill-rule="nonzero"/><path fill="#0b5394" d="m188.87927 51.774277l3.118103 -7.244095l3.118103 7.244095z" fill-rule="evenodd"/><path stroke="#0b5394" stroke-width="1.0" stroke-linejoin="round" stroke-linecap="butt" d="m188.87927 51.774277l3.118103 -7.244095l3.118103 7.244095z" fill-rule="evenodd"/><path fill="#000000" fill-opacity="0.0" d="m16.0 109.38906l492.0 0l0 261.79526l-492.0 0z" fill-rule="evenodd"/><path fill="#f3f3f3" d="m90.640625 305.20157q0 2.859375 -1.0 5.609375q-1.0 2.734375 -2.859375 4.59375q-2.5625 2.515625 -5.703125 3.8125q-3.125 1.28125 -7.796875 1.28125l-6.84375 0l0 13.890625l-11.0 0l0 -42.640625l18.109375 0q4.0625 0 6.84375 0.703125q2.796875 0.6875 4.953125 2.09375q2.578125 1.6875 3.9375 4.328125q1.359375 2.640625 1.359375 6.328125zm-11.375 0.265625q0 -1.8125 -0.96875 -3.109375q-0.96875 -1.3125 -2.265625 -1.828125q-1.71875 -0.6875 -3.359375 -0.75q-1.625 -0.078125 -4.34375 -0.078125l-1.890625 0l0 12.78125l3.15625 0q2.796875 0 4.609375 -0.34375q1.828125 -0.34375 3.0625 -1.375q1.0625 -0.921875 1.53125 -2.1875q0.46875 -1.28125 0.46875 -3.109375zm58.567886 28.921875l-11.359375 0l-2.953125 -8.625l-15.8125 0l-2.953125 8.625l-11.078125 0l15.75 -42.640625l12.65625 0l15.75 42.640625zm-16.96875 -16.4375l-5.25 -15.296875l-5.234375 15.296875l10.484375 0zm47.023163 -13.140625q0 -1.609375 -0.65625 -2.75q-0.65625 -1.15625 -2.265625 -1.8125q-1.125 -0.453125 -2.609375 -0.546875q-1.484375 -0.109375 -3.46875 -0.109375l-3.984375 0l0 11.484375l3.390625 0q2.625 0 4.40625 -0.25q1.78125 -0.265625 2.984375 -1.1875q1.140625 -0.890625 1.671875 -1.953125q0.53125 -1.078125 0.53125 -2.875zm17.15625 29.578125l-13.4375 0l-11.625 -15.640625l-5.078125 0l0 15.640625l-10.9375 0l0 -42.640625l18.453125 0q3.78125 0 6.5 0.4375q2.71875 0.421875 5.09375 1.84375q2.40625 1.4375 3.828125 3.71875q1.421875 2.265625 1.421875 5.703125q0 4.734375 -2.203125 7.71875q-2.1875 2.96875 -6.25 4.953125l14.234375 18.265625zm38.17935 -34.390625l-13.328125 0l0 34.390625l-10.984375 0l0 -34.390625l-13.328125 0l0 -8.25l37.640625 0l0 8.25zm49.71849 34.390625l-24.98436 0l0 -7.5625l7.0 0l0 -27.515625l-7.0 0l0 -7.5625l24.98436 0l0 7.5625l-6.984375 0l0 27.515625l6.984375 0l0 7.5625zm32.020386 0l-24.984375 0l0 -7.5625l7.0 0l0 -27.515625l-7.0 0l0 -7.5625l24.984375 0l0 7.5625l-6.984375 0l0 27.515625l6.984375 0l0 7.5625zm32.020325 0l-24.984375 0l0 -7.5625l7.0 0l0 -27.515625l-7.0 0l0 -7.5625l24.984375 0l0 7.5625l-6.984375 0l0 27.515625l6.984375 0l0 7.5625z" fill-rule="nonzero"/></g></svg>